# xmcd
#
# Track frame offsets:
#   150
#   14496
#   30084
#   44728
#   56672
#   69517
#   83686
#   98006
#   110463
#   125773
#   140223
#   154408
#   170509
#   186218
#   199416
#   213736
#   233223
#   249740
#   260832
#   278996
#
# Disc length: 3943 seconds
#
# Revision: 0
# Processed by: cddbd v1.5.2PL0 Copyright (c) Steve Scherf et al.
# Submitted via: uFREEDB ActiveX Control 1.5
#
DISCID=370f6514
DTITLE=Pholhas - Grandes Sucessos
DYEAR=2000
DGENRE=Blues
TTITLE0=My Mistake
TTITLE1=Forever
TTITLE2=She Made Me Cry
TTITLE3=Get Back
TTITLE4=I Never Did Before
TTITLE5=My Sorrow
TTITLE6=Special Girl
TTITLE7=Anymore
TTITLE8=Shadow Of Love
TTITLE9=The Other You
TTITLE10=I Remeber
TTITLE11=I Love You
TTITLE12=Good Bye
TTITLE13=It's Gonna Be Hard
TTITLE14=I Started A Joke
TTITLE15=A Winter Sade Of Pale
TTITLE16=Skyline Pigeon
TTITLE17=Have You Ever Seen The Rain
TTITLE18=How Can You Mand Broken Heart
TTITLE19=The Night Before
EXTD=
EXTT0=
EXTT1=
EXTT2=
EXTT3=
EXTT4=
EXTT5=
EXTT6=
EXTT7=
EXTT8=
EXTT9=
EXTT10=
EXTT11=
EXTT12=
EXTT13=
EXTT14=
EXTT15=
EXTT16=
EXTT17=
EXTT18=
EXTT19=
PLAYORDER=
